<svg width="25" height="25" viewBox="0 0 25 25" fill="none" xmlns="http://www.w3.org/2000/svg">
<g clip-path="url(#clip0)">
<path d="M12.5005 24.8537C11.7632 24.8537 11.0394 24.6521 10.4074 24.2707C8.47289 23.1035 6.32372 21.105 4.35585 18.6437C2.39442 16.1904 0.921765 13.6653 0.209119 11.5337C-0.117493 10.5568 -0.0590944 9.50444 0.373572 8.57065C1.56288 6.0042 4.41713 2.4959 6.60638 0.909668C7.2955 0.4104 8.11005 0.146484 8.962 0.146484C9.43588 0.146484 9.9014 0.229346 10.3457 0.392725C11.0523 0.652588 11.776 0.989258 12.5005 1.39502C13.2251 0.989258 13.9487 0.652588 14.6553 0.392725C15.0996 0.229346 15.5651 0.146484 16.039 0.146484C16.8909 0.146484 17.7055 0.4104 18.3945 0.90957C20.5838 2.4959 23.4381 6.00415 24.6273 8.57056C25.06 9.50444 25.1184 10.5567 24.7918 11.5337C24.0791 13.6653 22.6065 16.1903 20.6451 18.6436C18.6772 21.105 16.528 23.1034 14.5935 24.2707C13.9616 24.6521 13.2378 24.8537 12.5005 24.8537Z" fill="#FFDF47"/>
<path d="M17.6978 21.8574C8.05761 17.9621 6.8121 3.87827 7.95209 0.275391C7.47152 0.399756 7.01659 0.612842 6.60638 0.910059C4.41713 2.49629 1.56288 6.00459 0.373572 8.57109C-0.0590944 9.50488 -0.117493 10.5572 0.209119 11.5342C0.921765 13.6658 2.39442 16.1908 4.35585 18.6441C6.32372 21.1055 8.47289 23.1039 10.4074 24.2711C11.0394 24.6525 11.7632 24.8541 12.5005 24.8541C13.2378 24.8541 13.9616 24.6525 14.5936 24.2711C15.5894 23.6702 16.6422 22.8486 17.6978 21.8574Z" fill="#FDC000"/>
<path d="M22.7292 10.2234L15.3988 7.3252L12.5006 3.74039C12.1932 3.74039 11.8857 3.66026 11.6104 3.50001C11.0335 3.16432 10.3312 2.80548 9.56245 2.52276C9.01836 2.32266 8.40752 2.40738 7.93809 2.74747C6.07949 4.0941 3.4626 7.30265 2.43286 9.52486C2.33047 9.74586 2.27686 9.98394 2.27197 10.2234L10.3584 12.3655L12.5006 22.5844C12.8191 22.5844 13.1377 22.4988 13.4212 22.3277C16.967 20.1882 21.3399 14.7021 22.6396 10.8143C22.7038 10.6224 22.7333 10.4224 22.7292 10.2234Z" fill="#FFC203"/>
<path d="M15.8981 18.2893C16.5944 18.2893 17.2429 17.977 17.6772 17.4326C18.1115 16.8882 18.2718 16.1866 18.117 15.5078L18.0204 15.0836C17.8621 14.389 17.4293 13.8221 16.8506 13.4856C16.7546 13.0887 16.6675 12.6843 16.5959 12.3205C17.1845 11.8118 17.5575 11.0602 17.5575 10.2231C17.5575 9.34438 17.1464 8.55981 16.5065 8.05161C16.269 6.052 14.5631 4.49609 12.5006 4.49609C10.4382 4.49609 8.73223 6.052 8.49473 8.05161C7.85484 8.55976 7.44381 9.34434 7.44381 10.2231C7.44381 11.0602 7.8168 11.8118 8.40538 12.3205C8.3338 12.6843 8.24669 13.0887 8.15069 13.4856C7.57203 13.8221 7.13922 14.389 6.98087 15.0838L6.88429 15.5076C6.72955 16.1866 6.88985 16.8882 7.32408 17.4326C7.75836 17.977 8.40684 18.2893 9.10323 18.2893H15.8981Z" fill="#FFE87C"/>
<path d="M2.27234 10.2236C2.26829 10.4226 2.29778 10.6226 2.36199 10.8145C3.66174 14.7023 8.03455 20.1884 11.5803 22.3279C11.8639 22.499 12.1824 22.5846 12.501 22.5846V10.2236H2.27234Z" fill="#3278FF"/>
<path d="M22.7287 10.2234C22.7238 9.98396 22.6702 9.74587 22.5678 9.52487C21.538 7.30266 18.9211 4.09411 17.0625 2.74748C16.5931 2.40734 15.9822 2.32268 15.4381 2.52277C14.6694 2.80549 13.967 3.16433 13.3902 3.50002C13.1148 3.66027 12.8074 3.7404 12.5 3.7404V10.2235H22.7287V10.2234Z" fill="#3278FF"/>
<path d="M12.5006 18.2897V10.2236H7.44381C7.44381 11.0607 7.8168 11.8124 8.40538 12.321C8.3338 12.6849 8.24669 13.0893 8.15069 13.4862C7.57203 13.8226 7.13922 14.3895 6.98087 15.0843L6.88429 15.5081C6.72955 16.1871 6.88985 16.8888 7.32408 17.4331C7.75836 17.9775 8.40684 18.2898 9.10323 18.2898H12.5006V18.2897Z" fill="#52ACFF"/>
<path d="M16.5059 8.05161C16.2684 6.052 14.5625 4.49609 12.5 4.49609V10.2231H17.5568C17.5568 9.34438 17.1458 8.55981 16.5059 8.05161Z" fill="#52ACFF"/>
<path d="M15.4098 14.9113C15.0383 13.6716 14.6861 11.8391 14.6447 11.2354H10.3563C10.3149 11.8391 9.96279 13.6716 9.59131 14.9113H15.4098Z" fill="white"/>
<path d="M15.8983 16.5295H9.10338C8.77257 16.5295 8.5275 16.2223 8.60099 15.8998L8.69762 15.4758C8.77291 15.1455 9.06661 14.9111 9.40538 14.9111H15.5963C15.9351 14.9111 16.2288 15.1455 16.3041 15.4758L16.4007 15.8998C16.4742 16.2223 16.2291 16.5295 15.8983 16.5295Z" fill="#EEC076"/>
<path d="M13.4652 10.5845C14.6016 10.0508 15.0902 8.69697 14.5566 7.56059C14.0229 6.42422 12.6691 5.93562 11.5327 6.46927C10.3963 7.00293 9.90771 8.35676 10.4414 9.49314C10.975 10.6295 12.3289 11.1181 13.4652 10.5845Z" fill="white"/>
<path d="M14.7859 9.21289H10.2158C9.65732 9.21289 9.20459 9.66562 9.20459 10.2241C9.20459 10.7826 9.65732 11.2353 10.2158 11.2353H14.7859C15.3444 11.2353 15.7971 10.7825 15.7971 10.2241C15.7971 9.66562 15.3444 9.21289 14.7859 9.21289Z" fill="#EEC076"/>
</g>
<defs>
<clipPath id="clip0">
<rect width="25" height="25" fill="white"/>
</clipPath>
</defs>
</svg>
